<?xml version="1.0" standalone="no"?>
<!DOCTYPE svg PUBLIC "-//W3C//DTD SVG 20010904//EN"
 "http://www.w3.org/TR/2001/REC-SVG-20010904/DTD/svg10.dtd">
<svg version="1.0" xmlns="http://www.w3.org/2000/svg"
 width="400.000000pt" height="400.000000pt" viewBox="0 0 400.000000 400.000000"
 preserveAspectRatio="xMidYMid meet">
<metadata>
Created by potrace 1.14, written by Peter Selinger 2001-2017
</metadata>
<g transform="translate(0.000000,400.000000) scale(0.100000,-0.100000)"
fill="#000000" stroke="none">
<path d="M110 3928 c0 -3 -11 -5 -25 -3 -14 1 -28 -2 -31 -7 -3 -5 -12 -7 -20
-4 -8 3 -14 0 -14 -7 0 -8 -4 -6 -10 3 -6 10 -10 -661 -10 -1902 0 -1862 1
-1918 19 -1927 10 -6 21 -7 25 -4 3 3 6 1 6 -6 0 -8 5 -9 19 -1 15 7 23 6 34
-4 11 -11 17 -12 27 -3 10 9 11 9 5 -1 -6 -11 -3 -12 13 -3 15 8 21 8 24 -1 3
-8 10 -8 27 2 18 9 22 9 16 0 -6 -9 -3 -9 13 -1 14 8 21 8 24 0 2 -7 12 -7 31
0 15 6 27 7 27 2 0 -5 8 -8 18 -6 9 2 21 4 25 4 5 1 5 7 2 14 -4 6 0 3 9 -7
13 -17 18 -17 33 -5 15 12 16 12 8 -1 -8 -13 -7 -13 8 -1 14 11 17 11 17 0 0
-12 2 -12 9 0 7 11 9 11 13 0 4 -12 8 -12 20 -1 11 9 17 9 20 2 2 -8 11 -8 31
-1 15 6 27 7 27 2 0 -4 7 -8 15 -8 8 0 12 4 9 9 -3 4 0 8 5 8 6 0 11 -4 11 -9
0 -11 19 -9 39 3 8 5 16 4 21 -4 6 -9 12 -9 30 0 17 9 21 9 15 0 -6 -9 -3 -9
13 -1 14 8 21 8 24 0 2 -7 12 -7 31 0 15 6 27 7 27 2 0 -5 8 -8 18 -6 9 2 21
4 25 4 5 1 5 7 2 14 -4 6 0 3 9 -7 13 -17 18 -17 33 -5 15 12 16 12 8 -1 -8
-13 -7 -13 8 -1 14 11 17 11 17 0 0 -12 2 -12 9 0 7 11 9 11 13 0 4 -12 8 -12
20 -1 11 9 17 9 20 2 2 -8 11 -8 31 -1 19 8 27 7 27 0 0 -8 4 -8 13 -1 6 5 21
6 32 2 25 -9 47 -2 39 14 -3 6 1 3 9 -7 13 -16 19 -17 37 -7 17 9 21 9 15 0
-6 -9 -3 -9 13 -1 14 8 21 8 24 0 2 -7 12 -7 31 0 20 8 27 7 27 -2 0 -8 3 -8
9 2 6 9 10 10 12 2 3 -9 12 -9 32 -2 15 6 27 7 27 2 0 -9 31 -8 48 3 6 4 12 2
12 -3 0 -6 5 -11 11 -11 5 0 7 5 4 10 -8 12 17 9 26 -4 4 -4 17 -3 29 4 17 9
21 9 15 0 -6 -9 -3 -9 13 -1 14 8 21 8 24 0 2 -7 12 -7 31 0 15 6 27 7 27 2 0
-5 8 -8 18 -6 9 2 21 4 25 4 5 1 5 7 2 14 -4 6 0 3 9 -7 13 -17 18 -17 33 -5
15 12 16 12 8 -1 -8 -13 -7 -13 8 -1 14 11 17 11 17 0 0 -12 2 -12 9 0 7 11 9
11 13 0 4 -12 8 -12 20 -1 11 9 17 9 20 2 2 -8 11 -8 31 -1 19 8 27 7 27 0 0
-8 4 -8 13 -1 6 5 21 6 32 2 25 -9 47 -2 39 14 -3 6 1 3 9 -7 13 -16 19 -17
37 -7 17 9 21 9 15 0 -6 -9 -3 -9 13 -1 14 8 21 8 24 0 2 -7 12 -7 31 0 15 6
27 7 27 2 0 -11 19 -9 39 3 8 5 16 4 21 -5 7 -10 12 -10 26 2 16 12 17 12 9
-1 -8 -13 -7 -13 8 -1 14 11 17 11 17 0 0 -12 2 -12 9 0 7 11 9 11 13 0 4 -12
8 -12 20 -1 11 9 17 9 20 2 2 -8 11 -8 31 -1 19 8 27 7 27 0 0 -8 4 -8 13 -1
6 5 21 6 32 2 25 -9 47 -2 39 14 -3 6 1 3 9 -7 13 -16 19 -17 37 -7 17 9 21 9
15 0 -6 -9 -3 -9 13 -1 14 8 21 8 24 0 2 -7 12 -7 31 0 20 8 27 7 27 -2 0 -8
3 -8 9 2 6 9 10 10 12 2 3 -9 12 -9 32 -2 15 6 27 7 27 2 0 -9 31 -8 48 3 6 4
12 2 12 -3 0 -6 5 -11 11 -11 5 0 7 5 4 10 -8 12 17 9 26 -4 4 -4 17 -3 29 4
17 9 21 9 15 0 -6 -9 -3 -9 13 -1 14 8 21 8 24 0 2 -7 12 -7 31 0 15 6 27 7
27 2 0 -11 19 -9 39 3 8 5 16 4 21 -5 7 -10 12 -10 26 2 16 12 17 12 9 -1 -8
-13 -7 -13 8 -1 14 11 17 11 17 0 0 -12 2 -12 9 0 7 11 9 11 13 0 4 -12 8 -12
20 -1 11 9 17 9 20 2 2 -8 11 -8 31 -1 19 8 27 7 27 0 0 -8 4 -8 13 -1 6 5 21
6 32 2 25 -9 47 -2 39 14 -3 6 1 3 9 -7 13 -16 19 -17 37 -7 17 9 21 9 15 0
-6 -9 -3 -9 13 -1 14 8 21 8 24 0 2 -7 12 -7 31 0 15 6 27 7 27 2 0 -5 8 -8
18 -6 9 2 21 4 25 4 5 1 5 7 2 14 -4 6 0 3 9 -7 13 -17 18 -17 33 -5 15 12 16
12 8 -1 -8 -13 -7 -13 8 -1 14 11 17 11 17 0 0 -12 2 -12 9 0 7 11 9 11 13 0
4 -12 8 -12 20 -1 11 9 17 9 20 2 2 -8 11 -8 31 -1 15 6 27 7 27 2 0 -4 7 -8
15 -8 8 0 12 4 9 9 -3 4 0 8 5 8 6 0 11 -4 11 -9 0 -11 19 -9 39 3 8 5 16 4
21 -4 6 -9 12 -9 30 0 17 9 21 9 15 0 -6 -9 -3 -9 13 -1 14 8 21 8 24 0 2 -7
12 -7 31 0 18 7 27 7 27 0 0 -6 7 -6 20 1 14 8 20 8 20 0 0 -7 6 -8 18 -2 9 5
29 9 45 8 15 -1 27 2 27 6 0 4 7 5 15 2 9 -4 16 2 20 18 10 43 1 3818 -10
3819 -5 0 -16 6 -24 12 -12 10 -13 9 -6 -3 7 -12 6 -13 -6 -4 -8 6 -39 12 -69
13 -30 2 -58 5 -62 7 -3 2 -10 -1 -14 -7 -4 -8 -9 -7 -15 2 -8 12 -11 11 -19
-1 -9 -13 -10 -13 -10 0 0 12 -2 12 -9 1 -6 -9 -11 -10 -15 -2 -4 6 -12 11
-17 11 -6 0 -7 -6 -3 -12 5 -9 2 -9 -9 1 -12 9 -17 10 -17 2 0 -7 -5 -9 -11
-5 -6 3 -33 7 -60 8 -39 1 -48 -2 -44 -13 4 -11 1 -10 -13 2 -22 20 -36 22
-26 5 5 -9 2 -9 -9 1 -14 11 -17 11 -17 0 0 -10 -3 -10 -12 -1 -16 16 -31 15
-22 0 5 -9 2 -9 -9 1 -12 9 -17 10 -17 2 0 -7 -5 -9 -11 -5 -14 8 -103 9 -117
0 -6 -3 -13 0 -15 6 -4 10 -8 9 -16 -2 -10 -13 -11 -13 -11 0 0 12 -2 12 -9 1
-6 -9 -11 -10 -15 -2 -4 6 -12 11 -17 11 -6 0 -7 -6 -3 -12 5 -9 2 -9 -9 1
-12 9 -17 10 -17 2 0 -7 -5 -9 -11 -5 -6 3 -33 7 -60 8 -37 1 -49 -3 -49 -14
-1 -12 -3 -11 -11 3 -5 9 -15 17 -20 17 -6 0 -7 -6 -3 -12 5 -9 2 -9 -9 1 -14
11 -17 11 -17 0 0 -10 -3 -10 -12 -1 -16 16 -31 15 -22 0 5 -9 2 -9 -9 1 -12
9 -17 10 -17 2 0 -7 -5 -9 -11 -5 -14 8 -103 9 -117 0 -6 -3 -13 0 -15 6 -4
10 -8 9 -16 -2 -10 -13 -11 -13 -11 0 0 12 -2 12 -9 1 -6 -9 -11 -10 -15 -2
-4 6 -12 11 -17 11 -6 0 -7 -6 -3 -12 5 -9 2 -9 -9 1 -12 9 -17 10 -17 2 0 -7
-5 -9 -11 -5 -6 3 -33 7 -60 8 -37 1 -49 -3 -49 -14 -1 -12 -3 -11 -11 3 -5 9
-15 17 -20 17 -6 0 -7 -6 -3 -12 5 -9 2 -9 -9 1 -14 11 -17 11 -17 0 0 -10 -3
-10 -12 -1 -16 16 -31 15 -22 0 5 -9 2 -9 -9 1 -12 9 -17 10 -17 2 0 -7 -5 -9
-11 -5 -14 8 -103 9 -117 0 -6 -3 -13 0 -15 6 -4 10 -8 9 -16 -2 -10 -13 -11
-13 -11 0 0 12 -2 12 -9 1 -6 -9 -11 -10 -15 -2 -4 6 -12 11 -17 11 -6 0 -7
-6 -3 -12 5 -9 2 -9 -9 1 -12 9 -17 10 -17 2 0 -7 -5 -9 -11 -5 -6 3 -33 7
-60 8 -37 1 -49 -3 -49 -14 -1 -12 -3 -11 -11 3 -5 9 -15 17 -20 17 -6 0 -7
-6 -3 -12 5 -9 2 -9 -9 1 -14 11 -17 11 -17 0 0 -10 -3 -10 -12 -1 -16 16 -31
15 -22 0 5 -9 2 -9 -9 1 -12 9 -17 10 -17 2 0 -7 -5 -9 -11 -5 -14 8 -103 9
-117 0 -6 -3 -13 0 -15 6 -4 10 -8 9 -16 -2 -10 -13 -11 -13 -11 0 0 12 -2 12
-9 1 -6 -9 -11 -10 -15 -2 -4 6 -12 11 -17 11 -6 0 -7 -6 -3 -12 5 -9 2 -9 -9
1 -12 9 -17 10 -17 2 0 -7 -5 -9 -11 -5 -6 3 -33 7 -60 8 -37 1 -49 -3 -49
-14 -1 -12 -3 -11 -11 3 -5 9 -15 17 -20 17 -6 0 -7 -6 -3 -12 5 -9 2 -9 -9 1
-14 11 -17 11 -17 0 0 -10 -3 -10 -12 -1 -16 16 -31 15 -22 0 5 -9 2 -9 -9 1
-12 9 -17 10 -17 2 0 -7 -5 -9 -11 -5 -14 8 -103 9 -117 0 -6 -3 -13 0 -15 6
-4 10 -8 9 -16 -2 -10 -13 -11 -13 -11 0 0 12 -2 12 -9 1 -6 -9 -11 -10 -15
-2 -4 6 -12 11 -17 11 -6 0 -7 -6 -3 -12 5 -9 2 -9 -9 1 -12 9 -17 10 -17 2 0
-7 -5 -9 -11 -5 -6 3 -33 7 -60 8 -39 1 -48 -2 -44 -13 4 -11 1 -10 -13 2 -22
20 -36 22 -26 5 5 -9 2 -9 -9 1 -14 11 -17 11 -17 0 0 -10 -3 -10 -12 -1 -16
16 -31 15 -22 0 5 -9 2 -9 -9 1 -12 9 -17 10 -17 2 0 -7 -5 -9 -11 -5 -14 8
-103 9 -117 0 -6 -3 -13 0 -15 6 -4 10 -8 9 -16 -2 -10 -13 -11 -13 -11 0 0
12 -2 12 -9 1 -6 -9 -11 -10 -15 -2 -4 6 -12 11 -17 11 -6 0 -7 -6 -3 -12 5
-9 2 -9 -9 1 -12 9 -17 10 -17 2 0 -7 -5 -9 -11 -5 -6 3 -33 7 -60 8 -37 1
-49 -3 -49 -14 -1 -12 -3 -11 -11 3 -5 9 -15 17 -20 17 -6 0 -7 -6 -3 -12 5
-9 2 -9 -9 1 -14 11 -17 11 -17 0 0 -10 -3 -10 -12 -1 -16 16 -31 15 -22 0 5
-9 2 -9 -9 1 -12 9 -17 10 -17 2 0 -7 -5 -9 -11 -5 -14 8 -103 9 -117 0 -6 -3
-13 0 -15 6 -4 10 -8 9 -16 -2 -10 -13 -11 -13 -11 0 0 12 -2 12 -9 1 -6 -9
-11 -10 -15 -2 -4 6 -12 11 -17 11 -6 0 -7 -6 -3 -12 5 -9 2 -9 -9 1 -12 9
-17 10 -17 2 0 -7 -5 -9 -11 -5 -6 3 -33 7 -60 8 -37 1 -49 -3 -49 -13 0 -11
-4 -9 -15 5 -13 16 -16 17 -25 4 -5 -8 -10 -10 -10 -5 0 6 -11 10 -25 10 -14
0 -25 -3 -25 -7z"/>
</g>
</svg>
